# xmcd
#
# Track frame offsets:
#	150
#	16937
#	29990
#	45167
#	60502
#	76975
#	95677
#	112290
#	128402
#	145420
#	161162
#	171007
#	188217
#	200650
#	211675
#	231032
#	243085
#	264827
#
# Disc length: 3812
#
# Revision: 1
# Processed by: cddbd v1.5.1PL0 Copyright (c) Steve Scherf et al.
# Submitted via: VisiTrax 2.9.5.180 - For more info visit www.synapsa.com
# Normalized: r0:DSETVAR1
#
DISCID=f10ee212
DTITLE=Various Artist - CDX 93 October 1994
DYEAR=1994
DGENRE=
TTITLE0=Joy Lynn White - Bad loser
TTITLE1=Boz Scaggs - Fly like a byrd
TTITLE2=Martina McBride - Heart trouble
TTITLE3=Terry McBride and The Rides - High hopes and empty pockets
TTITLE4=Merle Haggard - I am an island
TTITLE5=Katey Segal - I don't wanna know
TTITLE6=Doug Stone - Little houses
TTITLE7=Diamond Rio - Night is falling in my heart
TTITLE8=Western Flyer - She should've been mine
TTITLE9=Mac Davis - Southern cookin'
TTITLE10=George Strait - The big one
TTITLE11=Radney Foster - The running kind
TTITLE12=Dolly Parton - To daddy
TTITLE13=Rhonda Hart - Waitin' for the phone to ring
TTITLE14=Gene Watson - ou gave me a mountain
TTITLE15=Will LeBlanc - Let it swing
TTITLE16=Samm Kershaw - Fire and rain
TTITLE17=Jesse Hunter - Long legged Hannah
EXTD=
EXTT0=
EXTT1=
EXTT2=
EXTT3=
EXTT4=
EXTT5=
EXTT6=
EXTT7=
EXTT8=
EXTT9=
EXTT10=
EXTT11=
EXTT12=
EXTT13=
EXTT14=
EXTT15=
EXTT16=
EXTT17=
PLAYORDER=
